# xmcd CD database file
#
# Track frame offsets:
#	150
#	12601
#	24110
#	37956
#	49706
#	61519
#	75688
#	88408
#	100922
#	113412
#	130242
#	149137
#	161002
#	178069
#	189325
#	202260
#	223629
#	244479
#	255547
#	270859
#	288463
#	306018
#	326406
#	339894
#
# Disc length: 4750 seconds
#
# Revision: 1
# Processed by: cddbd v1.5.1PL0 Copyright (c) Steve Scherf et al.
# Submitted via: CDex 1.50beta9
#
DISCID=54128c18
DTITLE=Johnny Cash - Best of "The Essential" (1-12) "Best Of Cash On American" (13-24)
DYEAR=1900
DGENRE=Country
TTITLE0=3 - I Walk The Line
TTITLE1=7 - Big River
TTITLE2=10 - Don't Take Your Guns To Town
TTITLE3=14 - I Still Miss Someone
TTITLE4=15 - Ring Of Fire
TTITLE5=17 - Orange Blossom Special
TTITLE6=2 - The One On The Right Is On The Left
TTITLE7=3 - Jackson
TTITLE8=4 - Folsom Prison Blues [Live]
TTITLE9=6 - Girl From The North Country
TTITLE10=9 - Sunday Morning Coming Down
TTITLE11=10 - Flesh and Blood
TTITLE12=Johnny Cash - Rowboat
TTITLE13=Johnny Cash - The One Rose
TTITLE14=Johnny Cash - Rusty Cage
TTITLE15=Johnny Cash - Southern Accents
TTITLE16=Johnny Cash - Mercy Seat
TTITLE17=Johnny Cash - Solitary Man
TTITLE18=Johnny Cash - Wayfaring Stranger
TTITLE19=Johnny Cash - One
TTITLE20=Johnny Cash - Hung My Heart
TTITLE21=Johnny Cash - The Man Comes Around
TTITLE22=Johnny Cash - We'll Meet Again
TTITLE23=Johnny Cash - Hurt
EXTD=
EXTT0=
EXTT1=
EXTT2=
EXTT3=
EXTT4=
EXTT5=
EXTT6=
EXTT7=
EXTT8=
EXTT9=
EXTT10=
EXTT11=
EXTT12=
EXTT13=
EXTT14=
EXTT15=
EXTT16=
EXTT17=
EXTT18=
EXTT19=
EXTT20=
EXTT21=
EXTT22=
EXTT23=
PLAYORDER=
